<svg id="Layer_1" data-name="Layer 1" xmlns="http://www.w3.org/2000/svg" xmlns:xlink="http://www.w3.org/1999/xlink" viewBox="0 0 42.06 42.06"><defs><linearGradient id="linear-gradient" x1="6.16" y1="6.16" x2="35.9" y2="35.9" gradientUnits="userSpaceOnUse"><stop offset="0" stop-color="#6be4ff"/><stop offset="1" stop-color="#00cfff"/></linearGradient></defs><path d="M42.06,21A21,21,0,1,0,35.9,35.9,21,21,0,0,0,42.06,21Z" style="fill:url(#linear-gradient)"/><path d="M35.23,20a16,16,0,0,0-1.39-.93,3.17,3.17,0,0,1-.58-.46,7.86,7.86,0,0,1-1.15-1.35,2,2,0,0,1,0-1.1A2.84,2.84,0,0,0,31.78,14l-.62-1a6.65,6.65,0,0,1-.69-1.48,4.28,4.28,0,0,0-1.09-1.75c-1-1-3.82-1.48-6.15-1.56l-.44-.1a9.14,9.14,0,0,0-3.14-.28,7.43,7.43,0,0,0-4.08,1.88c-.23.23-.57.34-.81.55-.48.44-1.13.44-1.55.92-.25.28-.37,1.19-1,1.54a8.43,8.43,0,0,0-2.14,1.54c-.2.25-.35.53-.55.78s-1.12.7-1.4,1a1.91,1.91,0,0,0-.44.8,2,2,0,0,0,0,.91c0,.07,0,.13,0,.18A4.92,4.92,0,0,1,8,19.33c-.08.39-1.09,3.3,1.17,4.07a1,1,0,0,1,.51.36,1.12,1.12,0,0,1,.21.6,3.37,3.37,0,0,0,.33,1.12,1.8,1.8,0,0,0,.64.7c.29.28.56.57.82.87.79,1.48.57,2.21,2.1,2.71a5.45,5.45,0,0,1,1.12.52,6.52,6.52,0,0,0,1.38.61l.06,0c.34-.82.68-1.6,1-2.33a6.77,6.77,0,0,1-1.76-6.81.1.1,0,0,1,0-.07l.06,0h.08l.07,0A6.78,6.78,0,0,1,18,27.32c.61-1.21,1.2-2.28,1.73-3.19a6.87,6.87,0,0,1,0-7.07l.06-.06.08,0,.07,0a.17.17,0,0,1,.06.06,6.76,6.76,0,0,1,.82,5.38c.5-.75.9-1.31,1.16-1.66a8,8,0,0,1,5.17-6.54h.08l.07,0a.18.18,0,0,1,.05.07.17.17,0,0,1,0,.07,8.27,8.27,0,0,1-1.5,4A8.17,8.17,0,0,1,22.52,21c-.5.65-1,1.34-1.43,2a6.89,6.89,0,0,1,5.6-1.36l.07,0a.16.16,0,0,1,0,.07.17.17,0,0,1,0,.07l0,.08a6.85,6.85,0,0,1-6.56,2.5c-.66,1.12-1.27,2.25-1.81,3.34a7,7,0,0,1,6.1-1.13l.07,0a.25.25,0,0,1,0,.07.11.11,0,0,1,0,.08.1.1,0,0,1,0,.07,6.89,6.89,0,0,1-6.68,1.92c-.36.75-.89,2-1.14,2.59-.09.21-.17.42-.24.64-.16.49-.39,1.11-.66,1.73a.71.71,0,0,0-.06.28,1.27,1.27,0,0,0,.06.28.66.66,0,0,0,.17.23.61.61,0,0,0,.24.15,15.35,15.35,0,0,0,9.29.34.72.72,0,0,0,.27-.15.64.64,0,0,0,.18-.25l.13-.29A28,28,0,0,0,27.66,30a3.43,3.43,0,0,1,.38-1.2,1.22,1.22,0,0,1,.44-.46,1.25,1.25,0,0,1,.6-.19A23.36,23.36,0,0,0,33,27.68c1-.33.58-2.22.53-2.42s.5-.68.61-1-.28-.37-.44-.68.4-.52.48-.79-.18-.58-.29-.78a2,2,0,0,1-.15-.47s.76-.56,1.16-.9a.76.76,0,0,0,.33-.71"/></svg>