<svg id="Layer_1" data-name="Layer 1" xmlns="http://www.w3.org/2000/svg" viewBox="0 0 199.37 199.37"><circle cx="99.69" cy="99.69" r="99.69" style="fill:#191413"/><path d="M100.29,41.49,50.2,70.42v57.9l50.09,28.93,50.08-28.93V70.42Zm2.1-14.61a4.2,4.2,0,0,0-4.2,0L38.65,61.29a4.19,4.19,0,0,0-2.1,3.65v68.82a4.19,4.19,0,0,0,2.1,3.65l59.54,34.41a4.2,4.2,0,0,0,4.2,0l59.53-34.41a4.2,4.2,0,0,0,2.11-3.65V64.94a4.2,4.2,0,0,0-2.11-3.65Z" style="fill:#f6901f;fill-rule:evenodd"/><path d="M100.29,62.44,68.34,80.9v36.9l31.75,18.34a.42.42,0,0,1,.2.36v6.31a.43.43,0,0,1-.64.35l-36-20.79A3.12,3.12,0,0,1,62,119.63V79.07a3.17,3.17,0,0,1,1.59-2.74L98.7,56.05a3.19,3.19,0,0,1,3.14,0L138,76.89a.41.41,0,0,1,0,.71c-2.14,1.27-3.21,1.83-5.63,3.18a.36.36,0,0,1-.4,0Z" style="fill:#f6901f"/><path d="M105.57,100.14a.34.34,0,0,1,.24-.35l31.74-16.91a.43.43,0,0,1,.64.36v41.15a.42.42,0,0,1-.2.36L106.24,143.2a.42.42,0,0,1-.63-.35V100.14Z" style="fill:#f6901f"/></svg>