<svg id="Layer_1" data-name="Layer 1" xmlns="http://www.w3.org/2000/svg" xmlns:xlink="http://www.w3.org/1999/xlink" viewBox="0 0 64 64"><defs><linearGradient id="linear-gradient" x1="9.37" y1="9.37" x2="54.63" y2="54.63" gradientUnits="userSpaceOnUse"><stop offset="0" stop-color="#b4f9cd"/><stop offset="1" stop-color="#b4f9ba"/></linearGradient></defs><circle cx="32" cy="32" r="32" style="fill:url(#linear-gradient)"/><path d="M43.54,25.54a.71.71,0,0,0-.32-.4Q33.75,19.7,24.43,14.31a.5.5,0,0,1-.19-.19.46.46,0,0,1-.08-.25.67.67,0,0,1,.33-.66l7.39-4.27a.65.65,0,0,1,.66,0L52,20.17a.45.45,0,0,1,.18.18.45.45,0,0,1,.07.25l.06,7.77a.78.78,0,0,1-.1.36A.64.64,0,0,1,52,29l-7.34,4.24a.9.9,0,0,1-.33.09.74.74,0,0,1-.33-.09A.67.67,0,0,1,43.7,33a.63.63,0,0,1-.09-.33l0-6.93A.58.58,0,0,0,43.54,25.54Z"/><path d="M19.75,16.37c2.3,1.34,4.78,2.73,7.14,4.12a1.06,1.06,0,0,1,.58.72.76.76,0,0,1,0,.15.42.42,0,0,1-.08.12,3.11,3.11,0,0,1-.77.6c-1.92,1.1-3.74,2.16-5.49,3.18a.78.78,0,0,0-.25.26.7.7,0,0,0-.09.35V47.52a.58.58,0,0,1-.17.41.58.58,0,0,1-.4.16,1.07,1.07,0,0,1-.59-.16l-7.21-4.16a.66.66,0,0,1-.33-.58V20.76a.57.57,0,0,1,.08-.28.58.58,0,0,1,.2-.21l6.71-3.9a.69.69,0,0,1,.68,0Z"/><path d="M32.64,44.87,50.87,34.35a1.47,1.47,0,0,1,1-.3.57.57,0,0,1,.46.62c0,2.94,0,5.75,0,8.44a.77.77,0,0,1-.42.71L32.54,55a.61.61,0,0,1-.3.08.64.64,0,0,1-.3-.08l-6.71-3.84a.67.67,0,0,1-.25-.25.69.69,0,0,1-.09-.34V42.06a.67.67,0,0,1,.09-.34.66.66,0,0,1,.58-.33.63.63,0,0,1,.33.09l5.93,3.39a.81.81,0,0,0,.41.11A.87.87,0,0,0,32.64,44.87Z"/></svg>