<svg width="200" height="200" viewBox="0 0 200 200" fill="none" xmlns="http://www.w3.org/2000/svg">
<g clip-path="url(#clip0_638_36)">
<circle cx="100" cy="100" r="100" fill="#111921"/>
<path d="M102.5 41.3955C107.711 41.3955 112.395 44.2907 114.725 48.9505L153.163 125.824C155.296 130.091 155.072 135.061 152.566 139.121C150.057 143.181 145.711 145.604 140.941 145.604H64.0627C59.2925 145.604 54.9462 143.181 52.437 139.121C49.9279 135.061 49.7038 130.091 51.8373 125.824L90.2746 48.9505C92.6046 44.2907 97.2886 41.3955 102.5 41.3955ZM102.5 32C93.7627 32 85.7802 36.9356 81.8716 44.7491L43.4343 121.623C39.8601 128.771 40.2427 137.264 44.4442 144.06C48.6457 150.861 56.0698 155 64.0627 155H140.937C148.93 155 156.354 150.861 160.556 144.06C164.757 137.26 165.14 128.771 161.566 121.623L123.128 44.7491C119.223 36.9356 111.237 32 102.5 32Z" fill="#5EEC5A"/>
</g>
<defs>
<clipPath id="clip0_638_36">
<rect width="200" height="200" fill="white"/>
</clipPath>
</defs>
</svg>
