<svg id="svg4" xmlns="http://www.w3.org/2000/svg" xmlns:xlink="http://www.w3.org/1999/xlink" viewBox="0 0 37.47 37.57"><defs><linearGradient id="linear-gradient" x1="5.42" y1="5.49" x2="31.98" y2="32.05" gradientUnits="userSpaceOnUse"><stop offset="0" stop-color="#c23f3c"/><stop offset="1" stop-color="#a01f1a"/></linearGradient></defs><path id="path1" d="M18.69,37.57a18.72,18.72,0,0,0,14-6.27A4.44,4.44,0,0,0,27,31.2l-.33.26a7.51,7.51,0,0,1-10.33-.84,4,4,0,0,0-5.61-.38L7,33.46A18.73,18.73,0,0,0,18.69,37.57Zm6.09-9.1a8,8,0,0,1,10,0,18.77,18.77,0,0,0-.6-20.3,4.41,4.41,0,0,0-3.88,1L30,9.47A7.53,7.53,0,0,1,19.63,9.1,4,4,0,0,0,14,9L9.64,13.09l-2.4-2.55,4.37-4.11a7.5,7.5,0,0,1,10.52.22,4,4,0,0,0,5.53.19L28,6.57a7.73,7.73,0,0,1,3.27-1.75A18.78,18.78,0,0,0,.07,16.31,7.69,7.69,0,0,1,8.9,17.87a4.18,4.18,0,0,0,5.57.38l2.44-1.91a8.12,8.12,0,0,1,10.34.28L32,20.76,29.7,23.4,25,19.26a4.62,4.62,0,0,0-5.88-.16L16.63,21a7.69,7.69,0,0,1-10.24-.69,4.19,4.19,0,0,0-5.86-.13l-.53.5A18.74,18.74,0,0,0,4.43,31l4-3.43a7.54,7.54,0,0,1,10.51.7,4,4,0,0,0,5.51.45Z" style="fill-rule:evenodd;fill:url(#linear-gradient)"/></svg>