<svg id="katman_1" data-name="katman 1" xmlns="http://www.w3.org/2000/svg" xmlns:xlink="http://www.w3.org/1999/xlink" viewBox="0 0 433.8 433.8"><defs><linearGradient id="linear-gradient" x1="-3.85" y1="-123.07" x2="437.7" y2="-131.13" gradientTransform="translate(0 344)" gradientUnits="userSpaceOnUse"><stop offset="0" stop-color="#29ccb9"/><stop offset="0.49" stop-color="#0091ff"/><stop offset="1" stop-color="#ff66b7"/></linearGradient></defs><path d="M100.9,372.4a193.69,193.69,0,0,1-78-155.6C22.9,109.6,109.8,22.7,217,22.7c88.5,0,185,52.9,208.4,133.8C399.2,66.2,315.8,0,216.9,0,97.1,0,0,97.1,0,216.9S97.1,433.8,216.9,433.8s216.9-97.1,216.9-216.9V205.5H420.3c-1.4,0-3.4-.1-6-.2-5.1-.2-12.2-.5-20.2-1.2-16.3-1.4-34.8-4.2-47.5-9.2-20.3-8.1-31.8-18.9-44.9-31.5l-.8-.7c-13.1-12.6-27.9-26.8-53.5-38.8-25.2-11.9-53.1-10-73.6-5.7a177.51,177.51,0,0,0-25.6,7.3c-3.2,1.1-5.7,2.2-7.5,2.9-10.3,4.3-20.3,9.5-30.4,14.2,0,0,19.8,5.4,29.7,8.5.4.1.9.3,1.6.5,1.5.5,3.6,1.2,6.1,2.3a115.21,115.21,0,0,1,18.7,9.6c10.6,6.8,19.4,15.4,23,25.9-22.5,3-43.6,12.8-59.3,22.1A241,241,0,0,0,107,226.9c-2.8,2.1-5,3.9-6.5,5.1-1.3,1.1-21.6,18.9-21.6,18.9s26.2,2.8,39.1,5.4a246.31,246.31,0,0,1,32.3,8.7c12.1,4.2,24.4,9.8,34.6,16.9s17.7,15.4,21.4,24.8c10.7,27.4.2,54.2-21,69.2C164.4,390.7,132.7,394.2,100.9,372.4Zm74,34a89.34,89.34,0,0,0,23.7-11.9c28.8-20.5,43.9-57.9,29-96.1-5.9-15-17.1-26.5-29.6-35.2s-26.8-15.1-40.1-19.7c-8.7-3-17.2-5.4-24.6-7.2,2.6-1.7,5.4-3.5,8.4-5.2,17.6-10.3,39.7-19.8,60.9-19.8,32,0,55.8,9.8,78.6,20.3,2.1,1,4.1,1.9,6.2,2.9,20.3,9.5,41.7,19.6,66.5,19.6a115.85,115.85,0,0,0,55.7-13.8c-11.5,96.2-93.4,170.8-192.7,170.8A214.4,214.4,0,0,1,174.9,406.4Zm210-180.3a95.78,95.78,0,0,1-31,5c-19.5,0-36.2-7.8-57.4-17.7l-5.7-2.7c-21.2-9.8-45.8-20.3-77.8-22.2-4.3-21.2-20.4-35.7-34.1-44.5-1.5-1-3.1-1.9-4.6-2.8l4.2-.9c18.5-3.8,40.6-4.8,59.2,4,22.2,10.4,34.7,22.5,47.7,35l.4.4c13.4,12.9,27.6,26.3,52.3,36.2C351.9,221.5,369.7,224.5,384.9,226.1Z" style="fill-rule:evenodd;fill:url(#linear-gradient)"/></svg>