<svg id="Layer_1" data-name="Layer 1" xmlns="http://www.w3.org/2000/svg" xmlns:xlink="http://www.w3.org/1999/xlink" viewBox="0 0 26.4 26.4"><defs><linearGradient id="linear-gradient" x1="287.99" y1="279.94" x2="314.39" y2="279.94" gradientTransform="translate(-1.54 -399.06) rotate(45)" gradientUnits="userSpaceOnUse"><stop offset="0" stop-color="#f5f5f5"/><stop offset="1" stop-color="#dadada"/></linearGradient></defs><circle cx="13.2" cy="13.2" r="13.2" style="fill:url(#linear-gradient)"/><path d="M19.65,6.88A9,9,0,0,0,17,5L16.88,5l-.59-.24a9.37,9.37,0,0,0-1.77-.45,9.5,9.5,0,0,0-1.31-.09,9,9,0,0,0-3.14,17.5,8.56,8.56,0,0,0,1.25.36,9,9,0,0,0,1.88.2A9,9,0,0,0,19.65,6.88ZM6.86,18A8,8,0,0,1,9.38,6.13c.06,0,.13,0,.07.11-.22.21-.44.44-.65.68a9.74,9.74,0,0,0-2.26,6.25c0,3,2,6.21,5.22,6.21,2.88,0,5.22-2.78,5.22-6.21a7,7,0,0,0-1.46-4.3.05.05,0,0,1,.06-.08,4.43,4.43,0,0,1,2.72,4.38,8,8,0,0,1-1.87,5.14,6.11,6.11,0,0,1-4.66,2.23A6.27,6.27,0,0,1,6.86,18ZM19.68,8.31a7.94,7.94,0,0,1,1.63,4.85,8.06,8.06,0,0,1-4.15,7c-.06,0-.12-.05-.07-.11.23-.22.44-.44.65-.68A9.7,9.7,0,0,0,20,13.16c0-3-2-6.21-5.22-6.21-2.87,0-5.22,2.78-5.22,6.21A6.88,6.88,0,0,0,11,17.45a0,0,0,0,1,0,.08,4.38,4.38,0,0,1-2.72-4.37A7.91,7.91,0,0,1,10.13,8a6.08,6.08,0,0,1,4.66-2.23,6.29,6.29,0,0,1,4.89,2.52ZM16,13.17A5.45,5.45,0,0,1,13.52,18a.55.55,0,0,1-.58,0l-.32-.23a5.61,5.61,0,0,1-2.11-4.53A5.41,5.41,0,0,1,13,8.38a.51.51,0,0,1,.57,0l.33.23A5.65,5.65,0,0,1,16,13.17Z" style="fill:#0500e2"/></svg>