<svg id="Layer_1" data-name="Layer 1" xmlns="http://www.w3.org/2000/svg" xmlns:xlink="http://www.w3.org/1999/xlink" viewBox="0 0 26.4 26.4"><defs><linearGradient id="linear-gradient" x1="402.64" y1="-545.84" x2="429.04" y2="-545.84" gradientTransform="matrix(0.71, 0.71, 0.71, -0.71, 103.25, -668.68)" gradientUnits="userSpaceOnUse"><stop offset="0" stop-color="#f5f5f5"/><stop offset="1" stop-color="#dadada"/></linearGradient></defs><circle cx="13.2" cy="13.2" r="13.2" style="fill:url(#linear-gradient)"/><path d="M19.61,6.88A9,9,0,0,0,17,5l-.12,0a6.07,6.07,0,0,0-.59-.24,9,9,0,0,0-1.77-.45,8.17,8.17,0,0,0-1.31-.1A9,9,0,0,0,10,21.67a6.64,6.64,0,0,0,1.25.36A9,9,0,0,0,19.61,6.88ZM6.82,18A8,8,0,0,1,8.3,6.81a8.76,8.76,0,0,1,1-.67c.06,0,.12,0,.07.1-.23.22-.44.44-.65.68A9.66,9.66,0,0,0,6.5,13.17c0,3,2,6.21,5.22,6.21,2.88,0,5.22-2.78,5.22-6.21a6.87,6.87,0,0,0-1.46-4.29V8.8a4.39,4.39,0,0,1,2.72,4.37,8,8,0,0,1-1.87,5.14,6.08,6.08,0,0,1-4.65,2.23A6.26,6.26,0,0,1,6.86,18ZM19.64,8.32a8,8,0,0,1-2.52,11.85c-.06,0-.13-.05-.07-.11.22-.21.44-.44.65-.68A9.77,9.77,0,0,0,20,13.13c0-3-2-6.21-5.22-6.21-2.88,0-5.22,2.79-5.22,6.21A6.9,6.9,0,0,0,11,17.43a.05.05,0,1,1-.06.08,4.42,4.42,0,0,1-2.71-4.38A8,8,0,0,1,10.08,8a6.09,6.09,0,0,1,4.67-2.23,6.31,6.31,0,0,1,4.89,2.53ZM16,13.17A5.4,5.4,0,0,1,13.47,18a.53.53,0,0,1-.57,0l-.32-.24a5.61,5.61,0,0,1-2.11-4.53A5.44,5.44,0,0,1,13,8.41a.55.55,0,0,1,.58,0l.32.23A5.64,5.64,0,0,1,16,13.17Z"/></svg>