<svg id="Layer_1" data-name="Layer 1" xmlns="http://www.w3.org/2000/svg" xmlns:xlink="http://www.w3.org/1999/xlink" viewBox="0 0 26.4 26.4"><defs><linearGradient id="linear-gradient" x1="105.34" y1="194.23" x2="131.74" y2="194.23" gradientTransform="matrix(0.71, 0.71, 0.71, -0.71, -207.96, 66.72)" gradientUnits="userSpaceOnUse"><stop offset="0" stop-color="#f5f5f5"/><stop offset="1" stop-color="#dadada"/></linearGradient><clipPath id="clip-path"><rect x="4.26" y="4.26" width="17.88" height="17.88" style="fill:none"/></clipPath></defs><circle cx="13.2" cy="13.2" r="13.2" style="fill:url(#linear-gradient)"/><g style="clip-path:url(#clip-path)"><path d="M20.32,7.8A7.07,7.07,0,0,0,14.79,5c-4.25,0-7.36,4-7.36,8.22,0,3,2,5.21,4.17,5.21a3.24,3.24,0,0,0,.62,0A6.39,6.39,0,0,1,9.8,13.19c0-3.38,2.29-6,5-6,2.94,0,5,2.92,5,6a9.76,9.76,0,0,1-2.26,6.25,7.75,7.75,0,0,1-4.66,2.68h.35A8.94,8.94,0,0,0,20.32,7.8ZM19,13.19c0-3-2-5.2-4.17-5.2a3.24,3.24,0,0,0-.62,0,6.38,6.38,0,0,1,2.42,5.15c0,3.39-2.29,6-5,6-2.94,0-5-2.92-5-6A9.75,9.75,0,0,1,8.88,7a7.75,7.75,0,0,1,4.66-2.68h-.35A8.94,8.94,0,0,0,6.07,18.59a7.06,7.06,0,0,0,5.53,2.82C15.85,21.42,19,17.47,19,13.19Z" style="fill:#0089db;fill-rule:evenodd"/></g></svg>