<svg id="Layer_1" data-name="Layer 1" xmlns="http://www.w3.org/2000/svg" xmlns:xlink="http://www.w3.org/1999/xlink" viewBox="0 0 490.79 415.58"><defs><linearGradient id="linear-gradient" x1="752.37" y1="669.13" x2="778.77" y2="669.13" gradientTransform="translate(409.45 -615.91) rotate(45)" gradientUnits="userSpaceOnUse"><stop offset="0" stop-color="#f5f5f5"/><stop offset="1" stop-color="#dadada"/></linearGradient></defs><circle cx="477.59" cy="402.38" r="13.2" style="fill:url(#linear-gradient)"/><path d="M484,396.06a9,9,0,0,0-2.65-1.87l-.12-.05a6.07,6.07,0,0,0-.59-.24,8.84,8.84,0,0,0-1.77-.45,8.17,8.17,0,0,0-1.31-.1,9,9,0,0,0-3.14,17.5,6.64,6.64,0,0,0,1.25.36,8.93,8.93,0,0,0,1.87.2A9,9,0,0,0,484,396.06Zm-12.79,11.15a8,8,0,0,1,2.52-11.89c.06,0,.12,0,.07.1-.23.22-.44.44-.65.68a9.7,9.7,0,0,0-2.26,6.25c0,3,2,6.21,5.22,6.21,2.88,0,5.22-2.78,5.22-6.21a6.9,6.9,0,0,0-1.46-4.29s0-.1,0-.08a4.39,4.39,0,0,1,2.72,4.37,8,8,0,0,1-1.87,5.14,6.07,6.07,0,0,1-4.65,2.23A6.26,6.26,0,0,1,471.25,407.21Zm12.82-9.71a7.92,7.92,0,0,1,1.63,4.85,8,8,0,0,1-4.15,7c-.06,0-.13-.05-.07-.11.22-.21.44-.44.65-.68a9.74,9.74,0,0,0,2.26-6.25c0-3-2-6.21-5.22-6.21-2.88,0-5.22,2.79-5.22,6.21a6.93,6.93,0,0,0,1.46,4.3.05.05,0,0,1-.06.08,4.41,4.41,0,0,1-2.71-4.38,8,8,0,0,1,1.87-5.14,6.11,6.11,0,0,1,4.67-2.23,6.3,6.3,0,0,1,4.89,2.53Zm-3.65,4.85a5.42,5.42,0,0,1-2.52,4.8.53.53,0,0,1-.57,0l-.32-.24a5.61,5.61,0,0,1-2.11-4.53,5.43,5.43,0,0,1,2.51-4.79.55.55,0,0,1,.58,0l.32.23a5.63,5.63,0,0,1,2.11,4.53Z"/><path d="M17.36,31.07l0-10.07L8.66,15.94,0,21,0,31.14l8.64,5ZM9.54,33.61l0-7.06,6-3.52v7ZM8.66,18l6.06,3.53L8.68,25,2.62,21.48Zm-6.9,5,6,3.54v7.07l-6-3.5Z"/><path d="M26.71,15.94l-8.66,5,0,10.16,8.63,5,8.7-5.08,0-10.07Zm0,2,6.06,3.53-6,3.53-6.06-3.55Zm-6.9,5,6,3.54v7.07l-6-3.5Zm7.78,10.6,0-7.06,6-3.52v7Z"/><path d="M26.38,5.05,17.71,0,9.05,5l0,10.15,8.64,5,8.69-5.08ZM17.71,2l6.06,3.53-6,3.53L11.67,5.54Zm-6.9,5,6,3.54,0,7.06-6-3.49Zm7.78,10.6V10.61l6-3.52,0,7Z"/></svg>