<?xml version="1.0" encoding="utf-8"?>
<!-- Generator: Adobe Illustrator 26.2.1, SVG Export Plug-In . SVG Version: 6.00 Build 0)  -->
<svg version="1.1" id="Layer_1" xmlns="http://www.w3.org/2000/svg" xmlns:xlink="http://www.w3.org/1999/xlink" x="0px" y="0px"
	 viewBox="0 0 26.4 26.4" style="enable-background:new 0 0 26.4 26.4;" xml:space="preserve">
<style type="text/css">
	.st0{fill:url(#SVGID_1_);}
	.st1{fill:#FFFFFF;}
</style>
<linearGradient id="SVGID_1_" gradientUnits="userSpaceOnUse" x1="767.9358" y1="-670.3732" x2="794.3358" y2="-670.3732" gradientTransform="matrix(0.71 0.71 0.71 -0.71 -66.11 -1018.04)">
	<stop  offset="0" style="stop-color:#1712FF"/>
	<stop  offset="1" style="stop-color:#0500E2"/>
</linearGradient>
<circle class="st0" cx="13.2" cy="13.2" r="13.2"/>
<path class="st1" d="M19.6,6.9C18.9,6.1,18,5.5,17,5h-0.1c-0.2-0.1-0.4-0.2-0.6-0.2c-0.6-0.2-1.2-0.4-1.8-0.4
	c-0.4-0.1-0.9-0.1-1.3-0.1c-5-0.1-9.1,3.9-9.1,8.9C4,16.9,6.4,20.4,10,21.7c0.4,0.2,0.8,0.3,1.2,0.4c4.8,1.1,9.7-1.9,10.8-6.8
	C22.7,12.2,21.8,9.1,19.6,6.9z M6.8,18c-2.7-3.5-2-8.5,1.5-11.2c0.3-0.2,0.7-0.5,1-0.7c0.1,0,0.1,0,0.1,0.1C9.1,6.5,8.9,6.7,8.7,6.9
	c-1.5,1.8-2.2,4-2.2,6.3c0,3,2,6.2,5.2,6.2c2.9,0,5.2-2.8,5.2-6.2c0-1.6-0.5-3.1-1.5-4.3V8.8c1.8,0.7,2.9,2.5,2.7,4.4
	c0,1.9-0.7,3.7-1.9,5.1c-1.1,1.4-2.8,2.2-4.6,2.2C9.8,20.5,8,19.5,6.8,18L6.8,18z M19.6,8.3c2.7,3.5,2,8.5-1.5,11.2
	c-0.3,0.2-0.6,0.5-1,0.6c-0.1,0-0.1,0-0.1-0.1c0.2-0.2,0.4-0.4,0.6-0.7c1.5-1.7,2.3-4,2.3-6.2c0-3-2-6.2-5.2-6.2
	c-2.9,0-5.2,2.8-5.2,6.2c0,1.6,0.5,3.1,1.4,4.3c0,0,0,0,0,0.1c0,0,0,0-0.1,0l0,0C9.1,16.8,8,15,8.1,13.1c0-1.9,0.7-3.7,1.9-5.1
	c1.1-1.4,2.9-2.2,4.7-2.2C16.7,5.8,18.5,6.8,19.6,8.3L19.6,8.3z M16,13.2c0.1,1.9-0.9,3.8-2.5,4.8c-0.2,0.1-0.4,0.1-0.6,0l-0.3-0.2
	c-1.4-1.1-2.2-2.8-2.1-4.5c-0.1-1.9,0.9-3.8,2.5-4.8c0.2-0.1,0.4-0.1,0.6,0l0.3,0.2C15.3,9.7,16,11.4,16,13.2z"/>
</svg>
