<svg id="Layer_1" data-name="Layer 1" xmlns="http://www.w3.org/2000/svg" xmlns:xlink="http://www.w3.org/1999/xlink" viewBox="0 0 2500 2500"><defs><linearGradient id="linear-gradient" x1="366.12" y1="366.12" x2="2133.88" y2="2133.88" gradientUnits="userSpaceOnUse"><stop offset="0" stop-color="#2b3f5c"/><stop offset="1" stop-color="#213147"/></linearGradient></defs><circle cx="1250" cy="1250" r="1250" style="fill:url(#linear-gradient)"/><g id="Layer_1-2" data-name="Layer_1"><g id="_2405588477232" data-name=" 2405588477232"><rect x="300" y="300" width="1900" height="1900" style="fill:none"/><path d="M1390.6,1394.4l-92,252.32a36.34,36.34,0,0,0,0,22l158.08,434,183.16-105.64L1420.24,1394.4A15.83,15.83,0,0,0,1390.6,1394.4Z" style="fill:#12aaff"/><path d="M1575.28,970.32a15.83,15.83,0,0,0-29.64,0l-92,252.32a36.34,36.34,0,0,0,0,22l259.16,710.6L1896,1849.64,1575.28,971.08Z" style="fill:#12aaff"/><path d="M1250,417.8a25.62,25.62,0,0,1,12.92,3.8L1960.6,824.4c8.36,4.56,12.92,13.68,12.92,22.8v805.6a27.5,27.5,0,0,1-12.92,22.8l-697.68,402.8a23.86,23.86,0,0,1-25.84,0L539.4,1675.6c-8.36-4.56-12.92-13.68-12.92-22.8V846.44a27.5,27.5,0,0,1,12.92-22.8l697.68-402.8A25.62,25.62,0,0,1,1250,417h0Zm0-117.8a144.54,144.54,0,0,0-72.2,19L480.12,721.8a143.34,143.34,0,0,0-72.2,124.64V1652a143.34,143.34,0,0,0,72.2,124.64l697.68,402.8c22,12.92,47.12,19,72.2,19a144.54,144.54,0,0,0,72.2-19l697.68-402.8a143.34,143.34,0,0,0,72.2-124.64V846.44a143.34,143.34,0,0,0-72.2-124.64L1321.44,319c-22-12.92-47.12-19-72.2-19h.76Z" style="fill:#9dcced"/><path d="M1190.72,789.44H1013.64A32.12,32.12,0,0,0,984,810L604.76,1849.64l183.16,105.64L1205.92,810c3.8-10.64-3.8-21.28-14.44-21.28Z" style="fill:#fff"/><path d="M1500.8,789.44H1323.72A32.12,32.12,0,0,0,1294.08,810L860.88,1997.08,1044,2102.72,1515.24,810c3.8-10.64-3.8-21.28-14.44-21.28Z" style="fill:#fff"/></g></g></svg>