<svg id="Layer_1" data-name="Layer 1" xmlns="http://www.w3.org/2000/svg" xmlns:xlink="http://www.w3.org/1999/xlink" viewBox="0 0 28 28"><defs><clipPath id="clip-path"><rect width="28" height="28" style="fill:none"/></clipPath></defs><g style="clip-path:url(#clip-path)"><path d="M14,0A14,14,0,1,1,0,14,14,14,0,0,1,14,0Z" style="fill:#f0b90b;fill-rule:evenodd"/><path d="M7.69,14v3.7l3.15,1.85v2.17l-5-2.92V12.92Zm0-3.7v2.15L5.86,11.37V9.21L7.69,8.13,9.53,9.21,7.69,10.3Zm4.47-1.09L14,8.13l1.84,1.08L14,10.3Z" style="fill:#fff"/><path d="M9,16.93V14.77l1.83,1.08V18Zm3.14,3.4L14,21.41l1.84-1.08v2.16L14,23.57l-1.84-1.08V20.33Zm6.3-11.12L20.3,8.13l1.84,1.08v2.16L20.3,12.45V10.3ZM20.3,17.7V14l1.83-1.08V18.8l-5,2.92V19.55Z" style="fill:#fff"/><path d="M19,16.93,17.15,18V15.85L19,14.77Z" style="fill:#fff"/><path d="M19,11.06v2.17l-3.15,1.85V18.8L14,19.87,12.17,18.8V15.08L9,13.23V11.06L10.86,10,14,11.84,17.15,10,19,11.06ZM9,7.36l5-2.93,5,2.93L17.15,8.45,14,6.59,10.85,8.45Z" style="fill:#fff"/></g></svg>