<svg id="Layer_1" data-name="Layer 1" xmlns="http://www.w3.org/2000/svg" xmlns:xlink="http://www.w3.org/1999/xlink" viewBox="0 0 28 28"><defs><clipPath id="clip-path"><rect width="28" height="28" style="fill:none"/></clipPath><linearGradient id="linear-gradient" x1="4.11" y1="25.89" x2="23.91" y2="6.09" gradientTransform="matrix(1, 0, 0, -1, 0, 30)" gradientUnits="userSpaceOnUse"><stop offset="0" stop-color="#1f1f1f"/><stop offset="1"/></linearGradient></defs><g style="clip-path:url(#clip-path)"><path d="M14,0A14,14,0,1,1,0,14,14,14,0,0,1,14,0Z" style="fill-rule:evenodd;fill:url(#linear-gradient)"/><path d="M7.7,14v3.7l3.2,1.9v2.2l-5-2.9V13Zm0-3.7v2.2L5.9,11.4V9.2L7.7,8.1,9.5,9.2Zm4.5-1.1L14,8.1l1.8,1.1L14,10.3Z" style="fill:#efb91c"/><path d="M9,16.9V14.7l1.8,1.1V18Zm3.1,3.4L14,21.4l1.8-1.1v2.2L14,23.6l-1.8-1.1-.1-2.2ZM18.4,9.2l1.9-1.1,1.8,1.1v2.2l-1.8,1.1V10.4Zm1.9,8.5V14l1.8-1.1v5.9l-5,2.9V19.5Z" style="fill:#efb91c"/><path d="M19,16.9,17.1,18V15.9L19,14.8Z" style="fill:#efb91c"/><path d="M19,11.1v2.2l-3.1,1.9v3.7l-1.9,1-1.8-1.1V15.1L9,13.2V11l1.9-1.1L14,11.7l3.1-1.8ZM9,7.4l5-2.9,5,2.9L17.1,8.5,14,6.6,10.9,8.5Z" style="fill:#efb91c"/></g></svg>