<svg id="Layer_1" data-name="Layer 1" xmlns="http://www.w3.org/2000/svg" xmlns:xlink="http://www.w3.org/1999/xlink" viewBox="0 0 26.4 26.4"><defs><linearGradient id="linear-gradient" x1="287.99" y1="279.94" x2="314.39" y2="279.94" gradientTransform="translate(-1.54 -399.06) rotate(45)" gradientUnits="userSpaceOnUse"><stop offset="0" stop-color="#f5f5f5"/><stop offset="1" stop-color="#dadada"/></linearGradient></defs><circle cx="13.2" cy="13.2" r="13.2" style="fill:url(#linear-gradient)"/><path d="M24.09,11.89a10.48,10.48,0,0,1,.07,1.25A10.88,10.88,0,0,1,3.4,17.78l1.75-.87a8.94,8.94,0,0,0,17.07-3.75v-.27ZM13.29,2.31a10.91,10.91,0,0,1,10.1,6.9l-1.86.6A8.94,8.94,0,0,0,4.31,13.2v.19L2.53,14.87A10.35,10.35,0,0,1,2.4,13.2,10.9,10.9,0,0,1,13.29,2.31Z" style="fill:#010e35;fill-rule:evenodd"/><polygon points="1.16 17.55 11.8 8.85 11.36 12.47 17.58 8.95 17.27 12.38 25.41 9.78 14.35 15.88 15.17 12.42 8.8 16.16 9.22 13.5 1.16 17.55" style="fill:#010e35;fill-rule:evenodd"/></svg>