<svg id="Layer_1" data-name="Layer 1" xmlns="http://www.w3.org/2000/svg" xmlns:xlink="http://www.w3.org/1999/xlink" viewBox="0 0 26.4 26.4"><defs><linearGradient id="linear-gradient" x1="105.34" y1="194.23" x2="131.74" y2="194.23" gradientTransform="matrix(0.71, 0.71, 0.71, -0.71, -207.96, 66.72)" gradientUnits="userSpaceOnUse"><stop offset="0" stop-color="#f5f5f5"/><stop offset="1" stop-color="#dadada"/></linearGradient></defs><circle cx="13.2" cy="13.2" r="13.2" style="fill:url(#linear-gradient)"/><path d="M21.86,12.15a9,9,0,0,1,.06,1A8.73,8.73,0,0,1,5.27,16.87l1.4-.7a7.17,7.17,0,0,0,13.69-3,1.62,1.62,0,0,0,0-.22ZM13.2,4.47A8.73,8.73,0,0,1,21.3,10l-1.49.48A7.17,7.17,0,0,0,6,13.2v.15L4.57,14.54a8.45,8.45,0,0,1-.1-1.34A8.73,8.73,0,0,1,13.2,4.47Z" style="fill:#010e35;fill-rule:evenodd"/><polygon points="3.47 16.69 12.01 9.71 11.65 12.61 16.64 9.79 16.39 12.54 22.92 10.46 14.05 15.35 14.71 12.57 9.6 15.57 9.94 13.44 3.47 16.69" style="fill:#010e35;fill-rule:evenodd"/></svg>