<svg id="Layer_1" data-name="Layer 1" xmlns="http://www.w3.org/2000/svg" xmlns:xlink="http://www.w3.org/1999/xlink" viewBox="0 0 28 28"><defs><linearGradient id="linear-gradient" x1="4.1" y1="4.1" x2="23.9" y2="23.9" gradientUnits="userSpaceOnUse"><stop offset="0" stop-color="#2bdb7f"/><stop offset="1" stop-color="#02d767"/></linearGradient></defs><circle cx="14" cy="14" r="14" style="fill:url(#linear-gradient)"/><path d="M3.51,13.87C5.74,11.68,8,9.47,10.16,7.23c1.62,1.61,3.24,3.21,4.83,4.84a1.87,1.87,0,0,1-1.37.75,2,2,0,0,1-1.47-.68c-.68-.65-1.32-1.34-2-2Q8.24,12.06,6.31,14c1,1.09,2.14,2.13,3.18,3.22.42.46,1,.84,1.16,1.48a2.73,2.73,0,0,1-.5,2.1C8,18.59,5.81,16.38,3.62,14.21c-.07-.09-.28-.23-.11-.34" style="fill:#fff"/><path d="M17.83,7.27c2.26,2.23,4.48,4.49,6.72,6.74-2.26,2.22-4.49,4.49-6.75,6.72-1.6-1.61-3.18-3.22-4.79-4.81a2.82,2.82,0,0,1,2.09-.43,2,2,0,0,1,1,.59c.6.59,1.18,1.19,1.78,1.77,1.27-1.28,2.54-2.57,3.84-3.82-1.29-1.3-2.57-2.6-3.87-3.88A1.75,1.75,0,0,1,17.27,9a3,3,0,0,1,.56-1.74" style="fill:#fff"/><path d="M9.57,12.74a1.38,1.38,0,0,1,1.85.82,1.37,1.37,0,1,1-1.85-.82" style="fill:#fff"/><path d="M17.25,12.78a1.37,1.37,0,1,1,1,2.55,1.37,1.37,0,0,1-1-2.55" style="fill:#fff"/></svg>