<?xml version="1.0" encoding="UTF-8"?>
<svg id="Layer_1" data-name="Layer 1" xmlns="http://www.w3.org/2000/svg" xmlns:xlink="http://www.w3.org/1999/xlink" viewBox="0 0 200 200">
  <defs>
    <style>
      .cls-1 {
        fill: none;
      }

      .cls-2 {
        fill: #00b359;
      }

      .cls-3 {
        fill: #fff;
      }

      .cls-4 {
        clip-path: url(#clippath);
      }
    </style>
    <clipPath id="clippath">
      <circle class="cls-1" cx="100" cy="100" r="100"/>
    </clipPath>
  </defs>
  <g class="cls-4">
    <rect class="cls-2" x="0" y="0" width="200" height="200"/>
  </g>
  <g id="Layer_1-2" data-name="Layer 1-2">
    <path class="cls-3" d="M166.02,95.94l-20.07-20.07-20.07-20.07c-.98-.98-2.23-1.52-3.51-1.65-.19-.01-.36-.03-.55-.03-1.47,0-2.93.56-4.05,1.68l-9.67,9.67,16.07,16.07-2.06,2.06c-3.34,3.34-8.75,3.34-12.1,0l-27.96-27.97h0c-.7-.65-1.52-1.08-2.39-1.31h0c-.17-.04-.35-.09-.52-.12h-.03c-.17-.03-.33-.04-.5-.06h-.06c-.16,0-.32-.01-.47,0h-.09c-.14,0-.29,0-.45.03-.04,0-.09,0-.13.01-.13.01-.27.04-.4.06-.06,0-.1.03-.16.04-.12.03-.24.06-.36.09-.07.01-.13.04-.2.07-.1.04-.22.07-.32.12-.07.03-.16.07-.23.1-.09.04-.19.09-.27.13-.09.04-.17.1-.26.16-.07.04-.14.09-.22.13-.1.07-.2.14-.3.22-.06.04-.12.07-.16.12-.14.12-.29.24-.43.39l-20.07,20.07-20.05,20.07c-.59.59-1.04,1.28-1.31,2.03-.78,2.04-.33,4.43,1.31,6.08l40.14,40.14c.35.35.72.63,1.12.88.17.1.36.2.53.29.14.06.27.12.42.17,1.29.47,2.7.46,4-.01.13-.04.24-.1.37-.16.37-.17.72-.37,1.06-.63l.03-.03s.03-.03.04-.03c.19-.14.36-.3.53-.47l9.66-9.66-16.07-16.07,2.06-2.06c3.34-3.34,8.75-3.34,12.1,0l27.96,27.96h0c.7.65,1.52,1.08,2.39,1.31h0c.17.04.35.09.52.12h.03c.12.01.23.03.35.04h1.08c.07,0,.13,0,.2-.01h.09c.09,0,.17-.03.26-.04.07,0,.13-.03.2-.04.03,0,.07-.01.1-.03.07-.01.16-.04.23-.06.06-.01.13-.04.19-.06.04-.01.09-.03.13-.04.07-.03.14-.04.2-.07s.12-.04.17-.07c.06-.03.1-.04.16-.07s.13-.06.19-.09.12-.06.16-.09c.06-.03.12-.07.19-.12.06-.03.1-.06.16-.09s.1-.07.16-.1c.07-.06.14-.1.22-.16.04-.03.07-.06.12-.09.17-.13.33-.27.47-.43l40.14-40.14c.14-.14.27-.29.39-.43.85-1.05,1.28-2.33,1.28-3.61,0-1.47-.56-2.93-1.68-4.05h.01Z"/>
  </g>
</svg>