<svg id="Layer_1" data-name="Layer 1" xmlns="http://www.w3.org/2000/svg" xmlns:xlink="http://www.w3.org/1999/xlink" viewBox="0 0 26.4 26.4"><defs><linearGradient id="linear-gradient" x1="287.98" y1="279.92" x2="314.38" y2="279.92" gradientTransform="translate(-1.55 -399.03) rotate(45)" gradientUnits="userSpaceOnUse"><stop offset="0" stop-color="#f5f5f5"/><stop offset="1" stop-color="#dadada"/></linearGradient></defs><circle cx="13.2" cy="13.2" r="13.2" style="fill:url(#linear-gradient)"/><g style="opacity:0.25"><path d="M13,18.64V13.8L8.86,11.38,4.7,13.79v4.88l4.15,2.41ZM9.28,19.86V16.47l2.89-1.69v3.38Zm-.42-7.51,2.91,1.7-2.9,1.69L6,14ZM5.54,14.77l2.91,1.7v3.39L5.55,18.18Z"/><path d="M17.52,11.38l-4.15,2.41v4.88l4.15,2.41,4.17-2.44V13.8Zm0,1,2.91,1.7-2.9,1.69L14.62,14Zm-3.31,2.42,2.9,1.7v3.39l-2.88-1.68ZM18,19.86V16.47l2.9-1.69v3.38Z"/><path d="M17.37,6.15,13.2,3.72,9,6.14V11l4.15,2.41L17.38,11ZM13.2,4.7l2.91,1.69-2.9,1.7L10.3,6.38ZM9.89,7.12l2.9,1.7v3.39L9.89,10.53Zm3.73,5.08V8.82l2.9-1.7V10.5Z"/></g></svg>